<?xml version="1.0" encoding="UTF-8"?><svg xmlns="http://www.w3.org/2000/svg" xmlns:xlink="http://www.w3.org/1999/xlink" viewBox="0 0 553.52 186.08"><defs><style>.cls-1{fill:url(#linear-gradient-4);}.cls-1,.cls-2,.cls-3{mix-blend-mode:multiply;}.cls-4{isolation:isolate;}.cls-2{fill:url(#linear-gradient-6);}.cls-5{fill:url(#linear-gradient-5);}.cls-6{fill:#fff;opacity:.2;}.cls-3{fill:url(#linear-gradient-2);}.cls-7{fill:url(#linear-gradient-7);}.cls-8{fill:url(#linear-gradient-3);}.cls-9{fill:url(#linear-gradient);}</style><linearGradient id="linear-gradient" x1="53.79" y1="190.19" x2="53.79" y2="4.08" gradientTransform="translate(51.03 -26.74) rotate(20.79)" gradientUnits="userSpaceOnUse"><stop offset="0" stop-color="#f37335"/><stop offset="1" stop-color="#fdc830"/></linearGradient><linearGradient id="linear-gradient-2" x1="43.35" y1="57.93" x2="43.35" y2="18.08" xlink:href="#linear-gradient"/><linearGradient id="linear-gradient-3" x1="124.89" y1="86.3" x2="124.89" y2="-99.81" gradientTransform="translate(207.33 -8.86) rotate(140.79)" xlink:href="#linear-gradient"/><linearGradient id="linear-gradient-4" x1="152.52" y1="142.2" x2="152.52" y2="43.49" gradientTransform="translate(51.03 -26.74) rotate(20.79)" gradientUnits="userSpaceOnUse"><stop offset="0" stop-color="#fdc830"/><stop offset="1" stop-color="#f37335"/></linearGradient><linearGradient id="linear-gradient-5" x1="109.02" y1="189.75" x2="109.02" y2="43.49" xlink:href="#linear-gradient-4"/><linearGradient id="linear-gradient-6" x1="66.58" y1="189.75" x2="66.58" y2="144.53" xlink:href="#linear-gradient-4"/><linearGradient id="linear-gradient-7" x1="64.95" y1="93.04" x2="121.22" y2="93.04" gradientTransform="translate(46.14 -29.91) rotate(24.12)" xlink:href="#linear-gradient"/></defs><g class="cls-4"><g id="Capa_2"><g id="OBJECTS"><g><g><g><path d="M249.19,55.04l-11.08,21.18v12.84h-4.44v-12.84l-11.13-21.18h4.93l8.39,17.23,8.4-17.23h4.93Z"/><path d="M260.66,87.18c-2.6-1.48-4.66-3.55-6.17-6.2-1.51-2.65-2.27-5.64-2.27-8.96s.76-6.3,2.27-8.96c1.51-2.65,3.57-4.72,6.17-6.2,2.6-1.48,5.48-2.22,8.64-2.22s6.08,.74,8.69,2.22c2.6,1.48,4.65,3.54,6.15,6.17,1.5,2.64,2.25,5.63,2.25,8.98s-.75,6.35-2.25,8.98c-1.5,2.64-3.55,4.69-6.15,6.17-2.6,1.48-5.5,2.22-8.69,2.22s-6.04-.74-8.64-2.22Zm15.06-3.29c1.9-1.11,3.4-2.68,4.49-4.73,1.09-2.05,1.64-4.42,1.64-7.13s-.55-5.12-1.64-7.15c-1.09-2.03-2.58-3.6-4.47-4.71-1.89-1.11-4.04-1.66-6.44-1.66s-4.56,.55-6.44,1.66c-1.89,1.11-3.38,2.68-4.47,4.71-1.09,2.03-1.64,4.42-1.64,7.15s.54,5.08,1.64,7.13c1.09,2.05,2.59,3.63,4.49,4.73,1.9,1.11,4.04,1.66,6.42,1.66s4.51-.55,6.42-1.66Z"/><path d="M296.58,55.04v21.52c0,3.03,.74,5.27,2.22,6.74,1.48,1.46,3.54,2.2,6.17,2.2s4.64-.73,6.13-2.2c1.48-1.46,2.22-3.71,2.22-6.74v-21.52h4.44v21.48c0,2.83-.57,5.22-1.71,7.15-1.14,1.94-2.68,3.38-4.61,4.32-1.94,.94-4.11,1.42-6.52,1.42s-4.58-.47-6.52-1.42c-1.94-.94-3.47-2.38-4.59-4.32-1.12-1.94-1.68-4.32-1.68-7.15v-21.48h4.44Z"/><path d="M343.1,89.06l-8.1-13.91h-5.37v13.91h-4.44V55.04h10.98c2.57,0,4.74,.44,6.52,1.32,1.77,.88,3.1,2.07,3.98,3.56,.88,1.5,1.32,3.21,1.32,5.12,0,2.34-.68,4.41-2.03,6.2-1.35,1.79-3.38,2.98-6.08,3.56l8.54,14.25h-5.32Zm-13.47-17.47h6.54c2.41,0,4.21-.59,5.42-1.78,1.2-1.19,1.81-2.77,1.81-4.76s-.59-3.58-1.78-4.69c-1.19-1.11-3-1.66-5.44-1.66h-6.54v12.89Z"/><path d="M388.32,73.05c1.02,.81,1.84,1.82,2.44,3.03,.6,1.2,.9,2.49,.9,3.86,0,1.73-.44,3.28-1.32,4.66-.88,1.38-2.16,2.47-3.83,3.27-1.68,.8-3.65,1.2-5.93,1.2h-12.69V55.04h12.2c2.31,0,4.28,.38,5.91,1.15,1.63,.76,2.85,1.8,3.66,3.1,.81,1.3,1.22,2.77,1.22,4.39,0,2.02-.55,3.69-1.64,5s-2.53,2.27-4.32,2.86c1.24,.19,2.37,.7,3.39,1.51Zm-15.98-3.32h7.47c2.08,0,3.69-.49,4.83-1.46,1.14-.98,1.71-2.33,1.71-4.05s-.57-3.08-1.71-4.05-2.78-1.46-4.93-1.46h-7.37v11.03Zm13.03,14.11c1.24-1.04,1.85-2.49,1.85-4.34s-.65-3.38-1.95-4.47c-1.3-1.09-3.04-1.64-5.22-1.64h-7.71v12.01h7.86c2.21,0,3.94-.52,5.17-1.56Z"/><path d="M415.72,89.06l-8.1-13.91h-5.37v13.91h-4.44V55.04h10.98c2.57,0,4.74,.44,6.52,1.32,1.77,.88,3.1,2.07,3.98,3.56,.88,1.5,1.32,3.21,1.32,5.12,0,2.34-.68,4.41-2.03,6.2-1.35,1.79-3.38,2.98-6.08,3.56l8.54,14.25h-5.32Zm-13.47-17.47h6.54c2.41,0,4.21-.59,5.42-1.78,1.2-1.19,1.81-2.77,1.81-4.76s-.59-3.58-1.78-4.69c-1.19-1.11-3-1.66-5.44-1.66h-6.54v12.89Z"/><path d="M447.59,81.5h-14.84l-2.73,7.57h-4.69l12.3-33.82h5.12l12.25,33.82h-4.69l-2.73-7.57Zm-1.27-3.61l-6.15-17.18-6.15,17.18h12.3Z"/><path d="M487.13,89.06h-4.44l-17.86-27.09v27.09h-4.44V54.99h4.44l17.86,27.04v-27.04h4.44v34.07Z"/><path d="M514.92,57.12c2.72,1.38,4.8,3.36,6.25,5.93,1.45,2.57,2.17,5.6,2.17,9.08s-.72,6.5-2.17,9.05c-1.45,2.55-3.53,4.51-6.25,5.86-2.72,1.35-5.93,2.03-9.64,2.03h-10.59V55.04h10.59c3.71,0,6.92,.69,9.64,2.07Zm.42,24.79c2.31-2.33,3.46-5.59,3.46-9.79s-1.16-7.53-3.49-9.91c-2.33-2.37-5.67-3.56-10.03-3.56h-6.15v26.75h6.15c4.39,0,7.74-1.16,10.05-3.49Z"/></g><g><path d="M291.23,109.39l-7.1,13.58v8.23h-2.85v-8.23l-7.13-13.58h3.16l5.38,11.05,5.38-11.05h3.16Z"/><path d="M304.85,130c-1.67-.95-2.99-2.27-3.96-3.97-.97-1.7-1.46-3.61-1.46-5.74s.49-4.04,1.46-5.74c.97-1.7,2.29-3.02,3.96-3.97s3.52-1.42,5.54-1.42,3.9,.48,5.57,1.42c1.67,.95,2.98,2.27,3.94,3.96s1.44,3.61,1.44,5.76-.48,4.07-1.44,5.76-2.27,3.01-3.94,3.96c-1.67,.95-3.53,1.42-5.57,1.42s-3.87-.47-5.54-1.42Zm9.65-2.11c1.22-.71,2.18-1.72,2.88-3.04,.7-1.31,1.05-2.84,1.05-4.57s-.35-3.28-1.05-4.58c-.7-1.3-1.65-2.31-2.86-3.02-1.21-.71-2.59-1.06-4.13-1.06s-2.92,.35-4.13,1.06c-1.21,.71-2.17,1.72-2.86,3.02-.7,1.3-1.05,2.83-1.05,4.58s.35,3.25,1.05,4.57c.7,1.31,1.66,2.33,2.88,3.04,1.22,.71,2.59,1.06,4.12,1.06s2.9-.35,4.12-1.06Z"/><path d="M334.14,109.39v13.8c0,1.94,.47,3.38,1.42,4.32,.95,.94,2.27,1.41,3.96,1.41s2.98-.47,3.93-1.41c.95-.94,1.42-2.38,1.42-4.32v-13.8h2.85v13.77c0,1.81-.37,3.34-1.1,4.58s-1.72,2.16-2.96,2.77c-1.24,.61-2.63,.91-4.18,.91s-2.94-.3-4.18-.91c-1.24-.6-2.22-1.53-2.94-2.77s-1.08-2.77-1.08-4.58v-13.77h2.85Z"/><path d="M370.22,131.21l-5.2-8.92h-3.44v8.92h-2.85v-21.81h7.04c1.65,0,3.04,.28,4.18,.85,1.14,.56,1.99,1.33,2.55,2.28,.56,.96,.84,2.06,.84,3.29,0,1.5-.43,2.83-1.3,3.97-.87,1.15-2.16,1.91-3.9,2.28l5.48,9.14h-3.41Zm-8.64-11.2h4.19c1.54,0,2.7-.38,3.47-1.14,.77-.76,1.16-1.78,1.16-3.05s-.38-2.29-1.14-3c-.76-.71-1.92-1.06-3.49-1.06h-4.19v8.26Z"/><path d="M412.06,109.39v2.32h-5.95v19.5h-2.85v-19.5h-5.98v-2.32h14.77Z"/><path d="M434.72,126.36h-9.51l-1.75,4.85h-3l7.89-21.69h3.29l7.86,21.69h-3l-1.75-4.85Zm-.81-2.32l-3.94-11.02-3.94,11.02h7.89Z"/><path d="M465.7,115.72c-.61-1.27-1.48-2.26-2.63-2.96-1.15-.7-2.48-1.05-4.01-1.05s-2.89,.35-4.12,1.05c-1.22,.7-2.18,1.7-2.88,3-.7,1.3-1.05,2.81-1.05,4.52s.35,3.21,1.05,4.51c.7,1.29,1.66,2.29,2.88,2.99,1.22,.7,2.59,1.05,4.12,1.05,2.13,0,3.88-.64,5.26-1.91,1.38-1.27,2.18-2.99,2.41-5.16h-8.7v-2.32h11.74v2.19c-.17,1.79-.73,3.44-1.69,4.93-.96,1.49-2.22,2.67-3.79,3.54s-3.31,1.3-5.23,1.3c-2.02,0-3.87-.47-5.54-1.42-1.67-.95-2.99-2.27-3.96-3.96-.97-1.69-1.46-3.6-1.46-5.73s.49-4.04,1.46-5.74c.97-1.7,2.29-3.02,3.96-3.97s3.52-1.42,5.54-1.42c2.32,0,4.37,.57,6.15,1.72,1.78,1.15,3.08,2.76,3.9,4.85h-3.41Z"/><path d="M482.63,128.89h7.64v2.32h-10.48v-21.81h2.85v19.5Z"/><path d="M502.41,109.39v21.81h-2.85v-21.81h2.85Z"/><path d="M530.67,131.21h-2.85l-11.45-17.37v17.37h-2.85v-21.84h2.85l11.45,17.34v-17.34h2.85v21.84Z"/><path d="M544.63,111.71v7.29h7.95v2.35h-7.95v7.51h8.89v2.35h-11.74v-21.84h11.74v2.35h-8.89Z"/></g></g><g><g><g><path class="cls-9" d="M39.99,109.01c3.84-51.25,48.5-89.68,99.75-85.84,6.28,.47,12.36,1.56,18.2,3.19C131.37,.56,90.74-7.86,54.92,8.25,8.04,29.33-12.87,84.42,8.21,131.29c11.77,26.16,34.13,44.24,59.75,51.43-19.08-18.55-30.11-45.1-27.96-73.71Z"/><path class="cls-3" d="M105.86,13.8c-27.59-7.8-55.8-2.29-77.77,12.69l-.02,.02c18.6-1.89,37.67,1.81,54.49,11.12,13.2-8.48,28.63-13.69,45.06-14.58-6.68-3.91-13.96-7.05-21.75-9.25Z"/><path class="cls-8" d="M105.88,39.14c42.46,28.95,53.42,86.85,24.46,129.31-3.55,5.2-7.53,9.92-11.86,14.16,35.63-10.11,63.23-41.08,67.19-80.17C190.86,51.32,153.61,5.66,102.48,.48,73.93-2.41,47.1,7.92,28.06,26.51c25.6-7.25,54.11-3.53,77.82,12.64Z"/><path class="cls-1" d="M155.37,143.71c20.56-20,29.89-47.19,27.9-73.72h0c-7.66,17.03-20.39,31.69-36.86,41.61,.76,15.64-2.41,31.58-9.81,46.25,6.68-3.82,13-8.52,18.78-14.13Z"/><path class="cls-5" d="M183.27,69.98c-6.52,25.8-24,48.62-49.85,61.07-31.26,15.05-66.74,11.05-93.37-7.36,1.87,22.85,12.09,43.59,27.78,58.91,36.56,10.32,77.26-2.56,100.77-35.16,16.78-23.27,21.24-51.67,14.67-77.46Z"/><path class="cls-2" d="M50.34,129.86c-3.55-1.83-6.99-3.89-10.29-6.18,1.87,22.85,12.09,43.59,27.78,58.91h.05c-10.91-15.16-17.21-33.52-17.54-52.74Z"/></g><path class="cls-6" d="M70.72,137.52l-31.5,31.5c5.89,4.17,12.24,7.64,18.89,10.33l39.18-39.18c-9,.4-17.95-.51-26.57-2.65Z"/><path class="cls-6" d="M43.12,140.86c.65,2.35,1.39,4.67,2.22,6.95l13.93-13.93c-3.04-1.19-6.03-2.52-8.94-4.03-1.77-.91-3.52-1.89-5.23-2.92-.03-.02-.05-.03-.08-.05-.83-.5-1.65-1.01-2.47-1.54-.84-.54-1.68-1.1-2.5-1.67-.39-4.81-.43-9.71-.06-14.67,.44-5.93,1.44-11.69,2.93-17.24L6.77,127.92c.45,1.13,.93,2.25,1.43,3.37,5.48,12.2,13.27,22.63,22.62,31.03l14.51-14.51c-.83-2.28-1.57-4.6-2.22-6.95Zm-3.07-17.17c.35,4.28,.99,8.48,1.91,12.59-.92-4.11-1.56-8.32-1.91-12.59Z"/><path class="cls-6" d="M105.88,39.14c9.75,6.65,17.83,14.82,24.15,23.98l32.26-32.26c-9.34-10.4-21.03-18.73-34.35-24.1l-28.41,28.41c2.15,1.23,4.27,2.55,6.35,3.97Z"/><path class="cls-6" d="M168.99,39.25l-33.27,33.27c3.55,6.73,6.25,13.84,8.06,21.17l35.56-35.56c-2.72-6.7-6.2-13.03-10.35-18.88Z"/></g><circle class="cls-7" cx="93.09" cy="93.04" r="28.14" transform="translate(-29.89 46.15) rotate(-24.12)"/></g></g></g></g></g></svg>